<?xml version="1.0" encoding="UTF-8"?>
<svg version="1.1" xmlns="http://www.w3.org/2000/svg" width="512" height="512">
<path d="M0 0 C0.67514648 0.31114746 1.35029297 0.62229492 2.04589844 0.94287109 C12.16774645 5.78753639 20.13001807 12.04229534 28 20 C28.76828125 20.72574219 29.5365625 21.45148437 30.328125 22.19921875 C32 24 32 24 32 26 C33.8253125 25.87625 33.8253125 25.87625 35.6875 25.75 C49.58163045 25.77184612 62.74114268 33.18199343 73 42 C73.90878906 42.74830078 73.90878906 42.74830078 74.8359375 43.51171875 C83.19007036 51.01531772 88.36705624 61.65604932 90.33203125 72.57421875 C91.09533753 75.34622577 91.73550771 76.26862809 94 78 C95.66621012 78.91489075 97.35695162 79.78572295 99.0625 80.625 C114.92718283 89.17395294 124.01035787 103.38944569 129.70703125 120.0703125 C132.63318093 130.13289917 132.1398882 140.26797038 130.47265625 150.4921875 C129.33567572 157.53437716 129.33567572 157.53437716 131.94140625 163.88671875 C133.23884766 165.27310547 133.23884766 165.27310547 134.5625 166.6875 C150.57104792 184.71267242 156.04310151 206.87296097 155.15234375 230.51367188 C154.37286585 243.2351509 150.66665667 255.2947129 144.625 266.5 C142.32673983 271.45009883 143.78699886 274.49549172 145.5 279.4375 C149.68482898 293.29072697 148.48545176 306.3433093 141.8671875 319.0859375 C139.87903208 322.18879093 137.65623434 324.57760532 135.0625 327.1875 C131.97333358 330.27841588 131.97333358 330.27841588 130.6484375 334.26953125 C130.9465267 336.56965193 131.45058869 338.74780329 132 341 C133.37503056 355.99561633 128.7844362 370.7706066 119.9296875 382.81640625 C108.81371525 395.86472493 94.7492082 403.12870717 78 406 C76.56253259 406.00967992 75.12495579 406.01127416 73.6875 406 C68.39071868 407.43641527 66.88249149 410.71116138 63.9140625 415.15234375 C55.94879922 427.00270484 42.37476674 434.33926368 28.66625977 437.54589844 C25.98556041 438.00245927 23.61587309 438.05377072 20.90234375 437.95703125 C6.790668 437.44711438 6.790668 437.44711438 -6.6953125 441.02734375 C-11.51610172 443.06188022 -16.36923601 443.18239968 -21.5390625 443.23828125 C-22.26056488 443.246353 -22.98206726 443.25442474 -23.72543335 443.26274109 C-25.25003701 443.27652748 -26.77467084 443.28727381 -28.29931641 443.29516602 C-29.83912375 443.30664264 -31.37889267 443.32702572 -32.91845703 443.35668945 C-49.00790279 443.6660354 -60.51719454 440.02382963 -72.625 429 C-80.28031926 421.11636421 -85.11679982 410.69097663 -85.13422108 399.69763851 C-85.13867892 398.39366806 -85.14313676 397.08969761 -85.14772969 395.7462129 C-85.1476404 394.29564725 -85.14745055 392.84508161 -85.14717102 391.39451599 C-85.15047043 389.85622711 -85.15419616 388.31793909 -85.1583125 386.77965218 C-85.16833195 382.54573641 -85.17204921 378.31183482 -85.17470181 374.07790887 C-85.17860505 369.51398451 -85.1881834 364.95007137 -85.19691467 360.38615417 C-85.21667897 349.36060738 -85.22674545 338.33505967 -85.23564246 327.30949959 C-85.24002559 322.11724719 -85.24539235 316.92499581 -85.25063133 311.73274422 C-85.2676439 294.4720897 -85.2821379 277.21143581 -85.28938007 259.95077419 C-85.29128997 255.47133318 -85.2932103 250.99189217 -85.29516602 246.51245117 C-85.29564976 245.39910867 -85.2961335 244.28576616 -85.2966319 243.13868601 C-85.30493155 225.10473094 -85.33026726 207.07084223 -85.36274669 189.03691613 C-85.39582142 170.52148186 -85.41382923 152.0060813 -85.41702431 133.49061733 C-85.41918907 123.09505129 -85.4279327 112.69958198 -85.45348549 102.30404472 C-85.47519814 93.45031775 -85.48324012 84.59671102 -85.47351871 75.74296045 C-85.46897561 71.22715669 -85.47086082 66.71160099 -85.49028015 62.1958313 C-85.50792398 58.05711147 -85.50690434 53.91882041 -85.49138286 49.78009594 C-85.48900863 48.28742687 -85.49332077 46.79472801 -85.50521151 45.30210441 C-85.62038048 29.8829437 -81.3859845 18.78224086 -71 7.375 C-53.85514043 -9.27333042 -20.92781438 -9.70051636 0 0 Z " fill="#FD001A" transform="translate(349,37)"/>
<path d="M0 0 C1.23685547 -0.01998047 2.47371094 -0.03996094 3.74804688 -0.06054688 C16.27441781 -0.05392267 25.10311959 3.13238587 34.4375 11.4375 C35.05367187 11.93765625 35.66984375 12.4378125 36.3046875 12.953125 C42.79101078 18.66108948 46.73336393 27.32509179 49.4375 35.4375 C49.53456312 37.52060913 49.57026469 39.60674228 49.57451439 41.6921072 C49.57958893 43.01088688 49.58466347 44.32966657 49.58989179 45.68840927 C49.59049349 47.16087938 49.59099256 48.63334953 49.59140015 50.1058197 C49.59541427 51.66315701 49.59985241 53.22049328 49.6046797 54.77782828 C49.61665708 59.06907859 49.62229637 63.36031765 49.62686086 67.65158141 C49.6328127 72.27553079 49.64442375 76.89946669 49.65515137 81.52340698 C49.67968739 92.69768805 49.69430554 103.87197359 49.70721143 115.04627332 C49.71092289 118.20242258 49.71489618 121.35857139 49.7189641 124.5147202 C49.74420328 144.11265548 49.76625717 163.71059144 49.77869225 183.30853939 C49.78162197 187.84932902 49.78458363 192.39011863 49.78759766 196.9309082 C49.78834371 198.05950697 49.78908976 199.18810574 49.78985842 200.35090447 C49.8025075 218.62675815 49.83572356 236.90251444 49.87739949 255.17832261 C49.9198353 273.94120208 49.94338931 292.70403173 49.94861281 311.46695906 C49.95202536 322.00176594 49.96376202 332.53642071 49.99671555 343.07118034 C50.02474 352.04495918 50.03570491 361.01855474 50.02452008 369.99237394 C50.01933932 374.56910512 50.02218224 379.14545265 50.04698563 383.72212791 C50.06953349 387.91776026 50.06869566 392.11273458 50.04978175 396.30837888 C50.04698944 397.82061484 50.05253735 399.33289594 50.06759469 400.84505951 C50.2061363 415.67336818 46.0366287 426.3287933 35.85546875 437.11328125 C25.19755621 447.14883393 13.5586523 448.69551748 -0.375 448.75 C-1.07547455 448.75361542 -1.7759491 448.75723083 -2.49765015 448.76095581 C-13.34547346 448.78357462 -23.65827906 448.38961047 -33.5625 443.4375 C-35.18805781 443.3434022 -36.81705732 443.30568749 -38.4453125 443.296875 C-60.4767291 442.95076642 -75.69324395 438.88315872 -92.3984375 423.78125 C-94.55387864 421.44683721 -95.64284572 419.40606135 -97 416.5625 C-98.50998399 414.0688693 -99.6428196 412.72889796 -102.45800781 411.83691406 C-106.51552317 411.01336773 -110.60886026 410.56988132 -114.71875 410.09375 C-125.48163677 408.80086033 -134.14012928 404.03092525 -142.5625 397.4375 C-143.614375 396.674375 -144.66625 395.91125 -145.75 395.125 C-157.35852699 384.03240754 -162.53763517 369.08817524 -163.8125 353.3515625 C-163.94507759 347.43528752 -163.06141472 342.15211235 -161.5625 336.4375 C-162.14 336.21191406 -162.7175 335.98632812 -163.3125 335.75390625 C-170.13512272 331.76219816 -175.37086785 321.92557651 -177.5625 314.4375 C-179.99936246 303.26854706 -180.202202 292.65533829 -175.875 281.9375 C-174.13656698 277.30167863 -174.84211359 275.04894899 -176.83203125 270.59765625 C-177.59580078 269.06431641 -177.59580078 269.06431641 -178.375 267.5 C-188.6359511 245.76947616 -189.64634001 220.97969025 -181.83105469 198.31640625 C-177.73339787 187.24500141 -171.89560547 175.96059763 -162.9375 168.0625 C-160.21306598 165.64127521 -160.21306598 165.64127521 -160.5625 162.3125 C-160.88064081 161.01700769 -161.21655517 159.72584625 -161.5625 158.4375 C-165.05018984 140.20986548 -163.68177623 122.17034627 -153.47265625 106.16015625 C-146.18801823 95.74832828 -136.36604527 87.33708483 -124.5625 82.4375 C-123.9025 82.4375 -123.2425 82.4375 -122.5625 82.4375 C-122.48 81.509375 -122.3975 80.58125 -122.3125 79.625 C-120.23679163 65.68409377 -112.29562231 53.34092718 -101.5625 44.4375 C-91.87896426 37.40071253 -81.0643925 31.8830402 -69 30.9375 C-62.74385308 30.00319987 -59.65144777 25.96997834 -55.54321289 21.5390625 C-41.06890533 6.07471145 -20.65733797 -0.11878239 0 0 Z " fill="#318CEF" transform="translate(198.5625,31.5625)"/>
<path d="M0 0 C0.67514648 0.31114746 1.35029297 0.62229492 2.04589844 0.94287109 C12.16774645 5.78753639 20.13001807 12.04229534 28 20 C28.76828125 20.72574219 29.5365625 21.45148437 30.328125 22.19921875 C32 24 32 24 32 26 C33.8253125 25.87625 33.8253125 25.87625 35.6875 25.75 C49.58163045 25.77184612 62.74114268 33.18199343 73 42 C73.90878906 42.74830078 73.90878906 42.74830078 74.8359375 43.51171875 C83.19007036 51.01531772 88.36705624 61.65604932 90.33203125 72.57421875 C91.09533753 75.34622577 91.73550771 76.26862809 94 78 C95.66621012 78.91489075 97.35695162 79.78572295 99.0625 80.625 C114.92718283 89.17395294 124.01035787 103.38944569 129.70703125 120.0703125 C132.63318093 130.13289917 132.1398882 140.26797038 130.47265625 150.4921875 C129.33567572 157.53437716 129.33567572 157.53437716 131.94140625 163.88671875 C133.23884766 165.27310547 133.23884766 165.27310547 134.5625 166.6875 C150.57104792 184.71267242 156.04310151 206.87296097 155.15234375 230.51367188 C154.37286585 243.2351509 150.66665667 255.2947129 144.625 266.5 C142.32673983 271.45009883 143.78699886 274.49549172 145.5 279.4375 C149.68482898 293.29072697 148.48545176 306.3433093 141.8671875 319.0859375 C139.87903208 322.18879093 137.65623434 324.57760532 135.0625 327.1875 C131.97333358 330.27841588 131.97333358 330.27841588 130.6484375 334.26953125 C130.9465267 336.56965193 131.45058869 338.74780329 132 341 C133.37503056 355.99561633 128.7844362 370.7706066 119.9296875 382.81640625 C108.81371525 395.86472493 94.7492082 403.12870717 78 406 C76.56253259 406.00967992 75.12495579 406.01127416 73.6875 406 C68.39071868 407.43641527 66.88249149 410.71116138 63.9140625 415.15234375 C55.94879922 427.00270484 42.37476674 434.33926368 28.66625977 437.54589844 C25.98556041 438.00245927 23.61587309 438.05377072 20.90234375 437.95703125 C6.790668 437.44711438 6.790668 437.44711438 -6.6953125 441.02734375 C-11.51610172 443.06188022 -16.36923601 443.18239968 -21.5390625 443.23828125 C-22.26056488 443.246353 -22.98206726 443.25442474 -23.72543335 443.26274109 C-25.25003701 443.27652748 -26.77467084 443.28727381 -28.29931641 443.29516602 C-29.83912375 443.30664264 -31.37889267 443.32702572 -32.91845703 443.35668945 C-49.00790279 443.6660354 -60.51719454 440.02382963 -72.625 429 C-80.28031926 421.11636421 -85.11679982 410.69097663 -85.13422108 399.69763851 C-85.13867892 398.39366806 -85.14313676 397.08969761 -85.14772969 395.7462129 C-85.1476404 394.29564725 -85.14745055 392.84508161 -85.14717102 391.39451599 C-85.15047043 389.85622711 -85.15419616 388.31793909 -85.1583125 386.77965218 C-85.16833195 382.54573641 -85.17204921 378.31183482 -85.17470181 374.07790887 C-85.17860505 369.51398451 -85.1881834 364.95007137 -85.19691467 360.38615417 C-85.21667897 349.36060738 -85.22674545 338.33505967 -85.23564246 327.30949959 C-85.24002559 322.11724719 -85.24539235 316.92499581 -85.25063133 311.73274422 C-85.2676439 294.4720897 -85.2821379 277.21143581 -85.28938007 259.95077419 C-85.29128997 255.47133318 -85.2932103 250.99189217 -85.29516602 246.51245117 C-85.29564976 245.39910867 -85.2961335 244.28576616 -85.2966319 243.13868601 C-85.30493155 225.10473094 -85.33026726 207.07084223 -85.36274669 189.03691613 C-85.39582142 170.52148186 -85.41382923 152.0060813 -85.41702431 133.49061733 C-85.41918907 123.09505129 -85.4279327 112.69958198 -85.45348549 102.30404472 C-85.47519814 93.45031775 -85.48324012 84.59671102 -85.47351871 75.74296045 C-85.46897561 71.22715669 -85.47086082 66.71160099 -85.49028015 62.1958313 C-85.50792398 58.05711147 -85.50690434 53.91882041 -85.49138286 49.78009594 C-85.48900863 48.28742687 -85.49332077 46.79472801 -85.50521151 45.30210441 C-85.62038048 29.8829437 -81.3859845 18.78224086 -71 7.375 C-53.85514043 -9.27333042 -20.92781438 -9.70051636 0 0 Z M-63 22 C-68.77415382 29.44561939 -69.28970118 36.04615686 -69.22705078 45.14599609 C-69.22734283 46.2587793 -69.22763489 47.3715625 -69.22793579 48.51806641 C-69.22654537 52.18660347 -69.21099741 55.85493602 -69.1953125 59.5234375 C-69.19158136 62.07076913 -69.18873486 64.61810221 -69.18673706 67.16543579 C-69.17988781 73.17890803 -69.16413388 79.19229284 -69.14403808 85.20573008 C-69.12164944 92.05457986 -69.11067821 98.90343322 -69.10064721 105.75231051 C-69.07976674 119.83491408 -69.04460931 133.91745303 -69 148 C-62.82530337 148.07423798 -56.65086739 148.12864413 -50.47583008 148.16479492 C-48.37584914 148.17986772 -46.2758996 148.20032941 -44.17602539 148.22631836 C-41.15503176 148.26276754 -38.13445489 148.27974159 -35.11328125 148.29296875 C-34.17664139 148.30845261 -33.24000153 148.32393646 -32.27497864 148.33988953 C-27.35339693 148.34115602 -23.97515236 148.24167949 -20 145 C-14.50633397 138.89592664 -14.79523853 133.36306961 -14.57421875 125.56640625 C-13.93225705 121.57925637 -13.22545471 120.34418293 -10 118 C-7 117.5 -7 117.5 -4 118 C-0.92252098 120.26908326 -0.08592357 121.4686638 0.53125 125.28515625 C0.4277074 137.80086797 -1.754783 146.18747214 -10.1953125 155.7109375 C-17.59782143 161.75253949 -24.60925773 163.74695046 -34.0390625 163.70703125 C-34.93326904 163.72165405 -35.82747559 163.73627686 -36.7487793 163.75134277 C-40.04058295 163.79816886 -43.3328771 163.80297192 -46.625 163.8125 C-54.00875 163.874375 -61.3925 163.93625 -69 164 C-69 182.15 -69 200.3 -69 219 C-55.635 219.495 -55.635 219.495 -42 220 C-38 224 -38 224 -37.5 227 C-38.12258354 230.73550127 -39.04552078 231.68551545 -42 234 C-44.93261719 234.54589844 -44.93261719 234.54589844 -48.296875 234.609375 C-49.38323242 234.63999023 -50.46958984 234.67060547 -51.58886719 234.70214844 C-52.96204102 234.71793945 -54.33521484 234.73373047 -55.75 234.75 C-60.1225 234.8325 -64.495 234.915 -69 235 C-69 245.56 -69 256.12 -69 267 C-56.78625202 267.0679122 -44.57263049 267.12289483 -32.35873604 267.15543652 C-26.68667685 267.17105882 -21.01475411 267.19223427 -15.34277344 267.22631836 C-9.86385643 267.25903437 -4.38507027 267.27687883 1.09393692 267.28463173 C3.1790078 267.2901533 5.26407193 267.30093537 7.34908676 267.31719017 C10.28089341 267.33912715 13.2121668 267.34196015 16.14404297 267.34057617 C16.99641037 267.351362 17.84877777 267.36214783 18.72697449 267.3732605 C31.70927858 267.30741435 42.34733385 262.1951488 51.671875 253.4140625 C62.29454827 242.39927713 64.54555299 229.89582727 64.5 215 C64.49235072 212.43749024 64.50198116 209.87485401 64.53125 207.3125 C64.52448242 205.63607422 64.52448242 205.63607422 64.51757812 203.92578125 C65.10911203 200.33825983 66.13461224 199.1730271 69 197 C72 196.5 72 196.5 75 197 C77.7082243 199.09931796 78.8680926 200.27179158 79.48583984 203.68212891 C79.47762207 204.68679199 79.4694043 205.69145508 79.4609375 206.7265625 C79.45707031 207.84160156 79.45320312 208.95664063 79.44921875 210.10546875 C79.42472656 211.26691406 79.40023437 212.42835938 79.375 213.625 C79.37306641 215.33236328 79.37306641 215.33236328 79.37109375 217.07421875 C79.18420857 235.16055138 73.3375232 251.2522244 60.9375 264.6875 C44.68823686 280.03097651 24.99508593 282.75457917 3.65625 282.70703125 C1.54917998 282.72017663 -0.55787751 282.73548944 -2.66491699 282.75285339 C-8.15568816 282.79238394 -13.6461273 282.80287308 -19.13702393 282.80688477 C-24.76202261 282.81627695 -30.38683105 282.85372795 -36.01171875 282.88867188 C-47.00784914 282.95292208 -58.00369371 282.98382896 -69 283 C-69 293.23 -69 303.46 -69 314 C-66.09574219 314.02578125 -63.19148438 314.0515625 -60.19921875 314.078125 C-57.35268916 314.11665631 -54.50633397 314.16178062 -51.65991211 314.20751953 C-49.69808429 314.23555715 -47.73614713 314.25685631 -45.77416992 314.27099609 C-31.19355525 314.38232682 -19.20929941 314.64129722 -8.23828125 325.40234375 C-0.95007376 333.86073464 0.78484214 341.71610658 0.30859375 352.53125 C0.07338186 355.17515076 -0.22163991 357.47837063 -1 360 C-2.41154099 360.27748242 -3.82979799 360.52093516 -5.25 360.75 C-6.43335938 360.95882812 -6.43335938 360.95882812 -7.640625 361.171875 C-10 361 -10 361 -12.265625 359.50390625 C-14.60007357 356.13367758 -14.5040858 353.1407378 -14.5 349.1875 C-14.7646071 340.88141359 -14.7646071 340.88141359 -19 334 C-24.79224041 330.00372113 -30.0883012 329.44748023 -36.96875 329.609375 C-37.88966431 329.61503479 -38.81057861 329.62069458 -39.75939941 329.62652588 C-42.67348307 329.64874764 -45.58629397 329.69891617 -48.5 329.75 C-50.48696129 329.7700834 -52.47394204 329.78833094 -54.4609375 329.8046875 C-59.30777499 329.8485657 -64.15367242 329.91749311 -69 330 C-69.06982631 339.06723344 -69.12297568 348.13437285 -69.15543652 357.20181751 C-69.17102415 361.41320679 -69.19213454 365.62441072 -69.22631836 369.83569336 C-69.25916031 373.90762312 -69.27690478 377.97937575 -69.28463173 382.05142784 C-69.29013105 383.59699983 -69.30086854 385.14256326 -69.31719017 386.68805885 C-69.44860828 399.66006782 -68.85452357 410.20018377 -59.41796875 419.8984375 C-51.47834761 426.79910983 -43.49573599 427.18195827 -33.4375 427.1875 C-32.29474609 427.19974609 -31.15199219 427.21199219 -29.97460938 427.22460938 C-21.19745584 427.23966453 -12.93047833 426.7173589 -4.9375 422.8125 C-0.70311906 421.03340351 1.99487155 420.87282183 6.46875 421.62109375 C19.38761334 423.55493595 32.26928777 421.57126354 42.9453125 413.75 C49.50489908 408.16312778 53.89021726 401.99729378 57.67578125 394.28515625 C59 392 59 392 62 390 C63.89428711 389.74462891 63.89428711 389.74462891 66.02734375 389.7265625 C66.81375244 389.70907959 67.60016113 389.69159668 68.41040039 389.67358398 C69.24434326 389.65755127 70.07828613 389.64151855 70.9375 389.625 C83.94214831 389.11657522 93.4969829 386.3053807 103 377 C111.52767086 367.62119884 115.17795399 359.14936681 115.1875 346.625 C115.19974609 345.78710938 115.21199219 344.94921875 115.22460938 344.0859375 C115.23594428 339.27993877 114.74649199 335.53952003 113 331 C112.75 327.625 112.75 327.625 114 324 C116.37775631 321.82767484 118.89431625 319.95591214 121.484375 318.04296875 C127.53480246 313.1293452 130.56089304 306.15996067 131.37109375 298.484375 C131.5518968 288.31686233 129.54698617 282.32047926 124 274 C123.46431979 269.19847617 124.35207204 266.82079954 127.125 262.9375 C138.0695411 246.59838793 141.20834534 230.86066802 137.9375 211.4375 C134.38681364 195.76211969 125.37918895 182.49545446 112.1640625 173.3046875 C96.49470282 163.85781723 79.1860306 160.50997457 61.10546875 163.68359375 C42.9656757 168.50353876 29.52751057 179.06777461 20 195 C15.5006753 203.09353743 13.13269709 212.21662307 12.625 221.4375 C12.32956639 225.10678542 12.02264662 225.96854636 9.75 229.125 C7 231 7 231 4.4375 231.5625 C1.182111 230.81125638 0.08526909 229.58816143 -2 227 C-4.98422865 211.59611388 3.04747095 194.89918881 11.16552734 182.17285156 C23.46232573 163.99760832 41.55585399 153.80886975 62.3671875 148.3828125 C79.89861316 145.8337328 95.85814284 149.48590028 112 156 C116.38005569 144.63271262 117.39868116 129.79672872 112.9375 118.3125 C107.01130588 106.47680527 98.67016678 99.04599501 87.06225586 93.06616211 C79.71417236 89.13132923 76.59064679 83.90775221 74.125 76.3125 C69.43156943 62.98995392 62.77559499 53.45319447 50.1875 46.6875 C44.51830872 44.01671265 39.22877303 42.57441135 33 42 C32.10539062 41.9175 31.21078125 41.835 30.2890625 41.75 C17.10787538 41.14570489 6.32321423 46.95928307 -3.1875 55.625 C-10.7420637 63.48114309 -14.70919383 73.94960473 -15.375 84.6875 C-15.65419071 88.13242946 -15.82421044 89.72003885 -17.6875 92.6875 C-20.75762811 94.43000514 -22.52212326 94.57964612 -26 94 C-28.375 92.625 -28.375 92.625 -30 90 C-32.36801846 77.84578281 -26.55436443 64.3257513 -20.18359375 54.21875 C-12.0875289 42.28465799 -0.97255283 33.19176585 13 29 C3.15221089 18.16743198 -9.99792339 11.62617613 -24.65795898 10.86132812 C-27.73107221 10.75788532 -30.80032032 10.71593415 -33.875 10.6875 C-35.43154297 10.64399414 -35.43154297 10.64399414 -37.01953125 10.59960938 C-48.0220852 10.50942451 -55.41827254 14.10881427 -63 22 Z " fill="#011B62" transform="translate(349,37)"/>
<path d="M0 0 C1.23685547 -0.01998047 2.47371094 -0.03996094 3.74804688 -0.06054688 C16.27441781 -0.05392267 25.10311959 3.13238587 34.4375 11.4375 C35.05367187 11.93765625 35.66984375 12.4378125 36.3046875 12.953125 C42.79101078 18.66108948 46.73336393 27.32509179 49.4375 35.4375 C49.53456312 37.52060913 49.57026469 39.60674228 49.57451439 41.6921072 C49.57958893 43.01088688 49.58466347 44.32966657 49.58989179 45.68840927 C49.59049349 47.16087938 49.59099256 48.63334953 49.59140015 50.1058197 C49.59541427 51.66315701 49.59985241 53.22049328 49.6046797 54.77782828 C49.61665708 59.06907859 49.62229637 63.36031765 49.62686086 67.65158141 C49.6328127 72.27553079 49.64442375 76.89946669 49.65515137 81.52340698 C49.67968739 92.69768805 49.69430554 103.87197359 49.70721143 115.04627332 C49.71092289 118.20242258 49.71489618 121.35857139 49.7189641 124.5147202 C49.74420328 144.11265548 49.76625717 163.71059144 49.77869225 183.30853939 C49.78162197 187.84932902 49.78458363 192.39011863 49.78759766 196.9309082 C49.78834371 198.05950697 49.78908976 199.18810574 49.78985842 200.35090447 C49.8025075 218.62675815 49.83572356 236.90251444 49.87739949 255.17832261 C49.9198353 273.94120208 49.94338931 292.70403173 49.94861281 311.46695906 C49.95202536 322.00176594 49.96376202 332.53642071 49.99671555 343.07118034 C50.02474 352.04495918 50.03570491 361.01855474 50.02452008 369.99237394 C50.01933932 374.56910512 50.02218224 379.14545265 50.04698563 383.72212791 C50.06953349 387.91776026 50.06869566 392.11273458 50.04978175 396.30837888 C50.04698944 397.82061484 50.05253735 399.33289594 50.06759469 400.84505951 C50.2061363 415.67336818 46.0366287 426.3287933 35.85546875 437.11328125 C25.19755621 447.14883393 13.5586523 448.69551748 -0.375 448.75 C-1.07547455 448.75361542 -1.7759491 448.75723083 -2.49765015 448.76095581 C-13.34547346 448.78357462 -23.65827906 448.38961047 -33.5625 443.4375 C-35.18805781 443.3434022 -36.81705732 443.30568749 -38.4453125 443.296875 C-60.4767291 442.95076642 -75.69324395 438.88315872 -92.3984375 423.78125 C-94.55387864 421.44683721 -95.64284572 419.40606135 -97 416.5625 C-98.50998399 414.0688693 -99.6428196 412.72889796 -102.45800781 411.83691406 C-106.51552317 411.01336773 -110.60886026 410.56988132 -114.71875 410.09375 C-125.48163677 408.80086033 -134.14012928 404.03092525 -142.5625 397.4375 C-143.614375 396.674375 -144.66625 395.91125 -145.75 395.125 C-157.35852699 384.03240754 -162.53763517 369.08817524 -163.8125 353.3515625 C-163.94507759 347.43528752 -163.06141472 342.15211235 -161.5625 336.4375 C-162.14 336.21191406 -162.7175 335.98632812 -163.3125 335.75390625 C-170.13512272 331.76219816 -175.37086785 321.92557651 -177.5625 314.4375 C-179.99936246 303.26854706 -180.202202 292.65533829 -175.875 281.9375 C-174.13656698 277.30167863 -174.84211359 275.04894899 -176.83203125 270.59765625 C-177.59580078 269.06431641 -177.59580078 269.06431641 -178.375 267.5 C-188.6359511 245.76947616 -189.64634001 220.97969025 -181.83105469 198.31640625 C-177.73339787 187.24500141 -171.89560547 175.96059763 -162.9375 168.0625 C-160.21306598 165.64127521 -160.21306598 165.64127521 -160.5625 162.3125 C-160.88064081 161.01700769 -161.21655517 159.72584625 -161.5625 158.4375 C-165.05018984 140.20986548 -163.68177623 122.17034627 -153.47265625 106.16015625 C-146.18801823 95.74832828 -136.36604527 87.33708483 -124.5625 82.4375 C-123.9025 82.4375 -123.2425 82.4375 -122.5625 82.4375 C-122.48 81.509375 -122.3975 80.58125 -122.3125 79.625 C-120.23679163 65.68409377 -112.29562231 53.34092718 -101.5625 44.4375 C-91.87896426 37.40071253 -81.0643925 31.8830402 -69 30.9375 C-62.74385308 30.00319987 -59.65144777 25.96997834 -55.54321289 21.5390625 C-41.06890533 6.07471145 -20.65733797 -0.11878239 0 0 Z M-44.5625 33.4375 C-41.7562413 35.30833913 -39.04943152 36.6391669 -36 38.0625 C-19.73180669 46.18678472 -9.3195767 59.5711275 -3.4609375 76.6484375 C-1.77754351 82.76843995 -0.5102567 89.10012558 -1.5625 95.4375 C-3.125 98.0625 -3.125 98.0625 -5.5625 99.4375 C-9.125 99.9375 -9.125 99.9375 -12.5625 99.4375 C-15.9466822 96.18868509 -16.0502148 92.97157068 -16.4375 88.4375 C-17.96429706 74.76942662 -23.57239404 65.16922536 -34.1171875 56.28515625 C-44.97115753 48.08399359 -58.29011827 46.04179319 -71.5625 47.4375 C-83.97092584 50.79811533 -94.47429851 58.20059971 -101.22265625 69.125 C-104.8160115 75.76431978 -106.58038476 82.05375093 -107.7265625 89.50390625 C-108.5625 92.4375 -108.5625 92.4375 -110.296875 94.203125 C-112.86700518 95.60340282 -115.43824998 96.62032684 -118.1875 97.625 C-130.96680135 102.85501858 -138.8204708 111.92224217 -144.5 124.3125 C-146.59757906 130.14141606 -147.02230249 135.55596445 -147.0625 141.6875 C-147.06886475 142.51491699 -147.07522949 143.34233398 -147.08178711 144.19482422 C-146.96076137 150.05200233 -145.69982718 154.99613951 -143.5625 160.4375 C-139.98247761 159.83627487 -136.66772574 158.83348109 -133.24853516 157.62182617 C-127.0242471 155.42174049 -121.19734107 153.58944293 -114.5625 153.4375 C-113.27472656 153.38722656 -111.98695312 153.33695313 -110.66015625 153.28515625 C-101.83999216 153.03899367 -94.00418936 153.61216494 -85.5625 156.4375 C-84.01175781 156.93056641 -84.01175781 156.93056641 -82.4296875 157.43359375 C-73.57604308 160.51636874 -66.17192726 165.07237217 -58.5625 170.4375 C-57.87414062 170.91832031 -57.18578125 171.39914063 -56.4765625 171.89453125 C-43.0385364 182.33581444 -32.06413116 202.14455967 -29.875 218.9375 C-28.88833682 230.41501046 -28.88833682 230.41501046 -30.5625 235.4375 C-36.32421875 236.70703125 -36.32421875 236.70703125 -38.5625 236.4375 C-42.07717822 233.81543847 -43.39464159 232.22783335 -44.3125 227.90625 C-44.395 226.5965625 -44.4775 225.286875 -44.5625 223.9375 C-45.68310264 211.53701626 -50.39693446 201.55655391 -57.5625 191.4375 C-58.6453125 189.890625 -58.6453125 189.890625 -59.75 188.3125 C-66.9901144 180.14962592 -76.41045776 174.99350381 -86.5625 171.4375 C-87.3359375 171.11910156 -88.109375 170.80070313 -88.90625 170.47265625 C-102.42361174 165.44993793 -120.17095901 167.77032685 -133.25390625 172.87890625 C-141.22368925 176.58438249 -147.4543488 181.15357466 -153.5625 187.4375 C-154.19671875 188.05109375 -154.8309375 188.6646875 -155.484375 189.296875 C-167.33480872 201.5667931 -170.8731121 218.2090269 -170.94750977 234.72167969 C-170.68655721 247.81726614 -164.77882509 261.27947897 -156.88671875 271.63671875 C-155.5625 273.4375 -155.5625 273.4375 -155 276.0625 C-155.73474345 280.47096068 -157.73820302 283.45258904 -160.15234375 287.16796875 C-164.08558647 293.4982015 -163.51308645 302.2400309 -161.9140625 309.30078125 C-159.08643268 317.07072131 -154.05773862 322.53610909 -147.625 327.5625 C-144.64709596 330.06527778 -144.64709596 330.06527778 -143.9375 333.1875 C-144.47158435 335.96473863 -145.19030576 338.444908 -146.0625 341.125 C-149.47165572 351.95312791 -147.48556889 361.98110115 -142.4375 371.9375 C-136.47807702 381.98846712 -128.62510119 388.93202122 -117.95703125 393.5703125 C-112.21640986 395.03684639 -106.34192375 394.79735307 -100.44140625 394.828125 C-93.18038066 395.00498354 -93.18038066 395.00498354 -90.0234375 397.21484375 C-88.64212948 399.31635247 -87.41548971 401.36551734 -86.3125 403.625 C-80.89411815 413.63830142 -73.35501932 420.14859846 -62.90625 424.55859375 C-58.33527578 425.76007646 -53.89620243 425.90333259 -49.1875 426.0625 C-48.28 426.10117187 -47.3725 426.13984375 -46.4375 426.1796875 C-42.37297847 426.34367396 -38.35090461 426.43893415 -34.28515625 426.30859375 C-30.35065275 426.44483574 -27.91905748 427.22235497 -24.375 428.875 C-16.61438253 432.44508746 -9.82738486 432.67607244 -1.375 432.75 C0.25405273 432.79350586 0.25405273 432.79350586 1.91601562 432.83789062 C10.74295478 432.90680967 17.3238519 431.07644406 24.75 426.3125 C31.30509629 419.30007141 33.56698476 411.57453904 33.55102539 402.19042969 C33.55124443 401.1069072 33.55124443 401.1069072 33.5514679 400.00149536 C33.55077284 397.62075772 33.5429995 395.24009892 33.53515625 392.859375 C33.53329063 391.20599409 33.5318674 389.55261262 33.53086853 387.89923096 C33.52705473 383.55255603 33.51723415 379.20591463 33.50616455 374.85925293 C33.49592599 370.42179823 33.49136567 365.98433811 33.48632812 361.546875 C33.47561086 352.84373463 33.45854809 344.14062149 33.4375 335.4375 C28.17225555 335.33806918 22.90756657 335.26576801 17.64160156 335.21777344 C15.85309316 335.19775041 14.06464946 335.17052346 12.27636719 335.13574219 C9.69449838 335.08681045 7.1135005 335.06443835 4.53125 335.046875 C3.74133667 335.02622986 2.95142334 335.00558472 2.13757324 334.98431396 C-3.52488694 334.9820635 -7.84398047 336.2420469 -12.5625 339.4375 C-17.13293753 344.59389106 -17.06717462 350.10204714 -17.06030273 356.75097656 C-17.11680926 360.20076155 -17.31333801 362.10316798 -19.40234375 364.90625 C-22.28231786 366.94775063 -24.10233933 366.8056022 -27.5625 366.4375 C-28.5525 366.1075 -29.5425 365.7775 -30.5625 365.4375 C-33.31248115 358.79849226 -32.58674349 348.68947309 -30.46875 341.96484375 C-26.32247734 333.24223291 -20.74412258 326.75523083 -12.01367188 322.49633789 C-3.98541264 320.03322525 4.73586115 320.647925 13.0625 320.625 C15.04039182 320.60182791 17.01825917 320.57645699 18.99609375 320.54882812 C23.81045261 320.48224227 28.62197059 320.46091769 33.4375 320.4375 C33.4375 309.8775 33.4375 299.3175 33.4375 288.4375 C30.73433594 288.43339111 28.03117188 288.42928223 25.24609375 288.42504883 C16.2574324 288.40775624 7.26905152 288.36309704 -1.71943665 288.30540943 C-7.16262183 288.27129827 -12.60553106 288.2460543 -18.04882812 288.24194336 C-23.31406371 288.23762616 -28.57867846 288.20888294 -33.84371948 288.16406822 C-35.84004076 288.15120169 -37.83643675 288.14674646 -39.83279419 288.15134621 C-60.8022076 288.18836535 -77.98488444 283.81295259 -93.5625 268.9375 C-106.99328798 254.48885193 -110.71406284 238.41412594 -110.875 219.1875 C-110.90400391 218.01703125 -110.93300781 216.8465625 -110.96289062 215.640625 C-110.97126953 214.5165625 -110.97964844 213.3925 -110.98828125 212.234375 C-111.00286377 211.21698242 -111.01744629 210.19958984 -111.0324707 209.15136719 C-110.4364245 205.70947132 -109.29525074 204.54811847 -106.5625 202.4375 C-103.5625 201.9375 -103.5625 201.9375 -100.5625 202.4375 C-97.71280917 204.60222163 -96.67195468 205.75854879 -96.09594727 209.33154297 C-96.10682373 210.43643066 -96.1177002 211.54131836 -96.12890625 212.6796875 C-96.12294434 213.90461914 -96.11698242 215.12955078 -96.11083984 216.39160156 C-96.11784912 218.33244629 -96.11784912 218.33244629 -96.125 220.3125 C-95.85993163 236.81958205 -93.4829376 248.24838389 -81.6875 260.36328125 C-68.03629727 273.21632898 -51.85815734 272.73215755 -34.23828125 272.6328125 C-32.2810226 272.62907605 -30.32376206 272.62623207 -28.36650085 272.62423706 C-23.24885775 272.61665032 -18.13133062 272.59704515 -13.01373291 272.5748291 C-7.77805143 272.55426308 -2.54235097 272.54521247 2.69335938 272.53515625 C12.94146505 272.51379398 23.18945467 272.47865299 33.4375 272.4375 C33.4375 261.8775 33.4375 251.3175 33.4375 240.4375 C24.73225818 240.26719695 24.73225818 240.26719695 16.02636719 240.13964844 C14.39683105 240.09372559 14.39683105 240.09372559 12.734375 240.046875 C11.62416992 240.02592773 10.51396484 240.00498047 9.37011719 239.98339844 C5.81048252 239.32078246 4.60954939 238.28823387 2.4375 235.4375 C1.9375 232.4375 1.9375 232.4375 2.4375 229.4375 C4.60954939 226.58676613 5.81048252 225.55421754 9.37011719 224.89160156 C10.48032227 224.8706543 11.59052734 224.84970703 12.734375 224.828125 C13.82073242 224.79750977 14.90708984 224.76689453 16.02636719 224.73535156 C17.39954102 224.71956055 18.77271484 224.70376953 20.1875 224.6875 C24.56 224.605 28.9325 224.5225 33.4375 224.4375 C33.4375 206.6175 33.4375 188.7975 33.4375 170.4375 C21.4273564 170.26748228 21.4273564 170.26748228 9.41674805 170.13964844 C-3.70079814 169.93389305 -13.59057398 168.37909816 -23.39453125 158.94921875 C-29.61715708 151.73994233 -31.70048756 144.26932289 -31.875 134.9375 C-31.93107422 132.97296875 -31.93107422 132.97296875 -31.98828125 130.96875 C-31.5625 127.4375 -31.5625 127.4375 -29.73046875 125 C-27.5625 123.4375 -27.5625 123.4375 -24.5625 122.9375 C-20.79819163 123.56488473 -19.85805202 124.41882483 -17.5625 127.4375 C-17.05859375 130.8984375 -17.05859375 130.8984375 -17 134.8125 C-16.88085778 141.80684941 -15.93425821 145.94479707 -11.04418945 151.08422852 C-6.98880888 154.35413376 -3.02859575 154.0754231 1.9921875 153.92578125 C2.89373566 153.91870651 3.79528381 153.91163177 4.72415161 153.90434265 C7.5877986 153.87647892 10.4494497 153.813757 13.3125 153.75 C15.26038832 153.72490669 17.20830745 153.70209533 19.15625 153.68164062 C23.9174291 153.62667868 28.67712683 153.54046295 33.4375 153.4375 C33.53112455 138.59886392 33.60156766 123.76026718 33.64474869 108.9213953 C33.66533529 102.03074811 33.69338056 95.14028492 33.73925781 88.24975586 C33.7835288 81.59728354 33.80665291 74.94495182 33.81700897 68.29232597 C33.82438714 65.75705397 33.83879493 63.22179215 33.86042023 60.68660164 C33.88955 57.12946293 33.89345183 53.57310836 33.89160156 50.01586914 C33.91317322 48.45140297 33.91317322 48.45140297 33.93518066 46.85533142 C33.88161914 37.30931478 30.91060081 30.17817842 24.44140625 23.1640625 C5.11873546 6.51567948 -28.58649206 17.96503385 -44.5625 33.4375 Z " fill="#001C64" transform="translate(198.5625,31.5625)"/>
<path d="M0 0 C14.82074396 4.5068929 25.63830052 15.49636978 33.30859375 28.62109375 C40.44209887 42.87162938 42.55350458 60.40672068 38.18359375 75.81640625 C35.2617106 83.67559691 31.45374498 91.3388567 26.78515625 98.3046875 C24.52508904 101.7170428 24.22489153 102.96943594 25 107 C26.40852242 109.67075913 27.94484304 112.19880099 29.58984375 114.73046875 C33.59973795 121.18406579 32.98114962 130.74461395 31.31640625 137.96484375 C28.66239953 145.11194069 24.62355713 150.42470973 18.1875 154.5 C15.28214568 156.46047139 15.05083375 156.83553787 13.9375 160.4375 C13.80180849 163.91319597 13.80180849 163.91319597 14.98046875 166.64453125 C17.7318718 175.69991523 17.55660025 188.28052266 13.32421875 196.8046875 C12.66873047 197.89136719 12.66873047 197.89136719 12 199 C11.49082031 199.84820312 10.98164063 200.69640625 10.45703125 201.5703125 C5.70897515 208.84994085 0.31535654 215.00762256 -8 218 C-7.43732422 217.01773438 -7.43732422 217.01773438 -6.86328125 216.015625 C-0.10775692 203.96798968 6.08288972 192.83376215 2.38916016 178.65527344 C1.16851424 174.59712604 -0.21709935 170.61432713 -1.6875 166.640625 C-3 163 -3 163 -3 161 C-1.66084559 159.95248366 -0.27669729 158.96222124 1.125 158 C8.90335562 152.09285257 13.35988969 143.58312387 15 134 C15.84986088 124.98727778 15.12657423 117.14273844 11 109 C10.41863281 108.34257812 9.83726562 107.68515625 9.23828125 107.0078125 C8.82964844 106.34523438 8.42101562 105.68265625 8 105 C8.92265094 101.42260493 10.8149394 98.57803532 12.8125 95.5 C23.01975688 78.75410913 25.88403359 58.73686316 21.97216797 39.5612793 C18.69009079 26.10204758 12.06872658 14.37574926 3 4 C1.9883462 2.67548712 0.98442389 1.34487449 0 0 Z " fill="#E079FB" transform="translate(448,204)"/>
<path d="M0 0 C0 3.6891628 -0.89837148 4.44487236 -3.125 7.3125 C-15.12075007 24.01913168 -18.23541938 44.14557467 -15.49609375 64.1953125 C-13.46708546 75.48819292 -9.53076662 85.29634712 -3.0390625 94.74609375 C-1.69727911 97.65665397 -2.04607409 98.97766047 -3 102 C-3.62296783 103.53924967 -4.28993301 105.06143926 -5 106.5625 C-9.2497044 115.57749793 -9.59641496 126.42462499 -6.375 135.875 C-3.15360739 143.48200781 0.7021649 149.76123774 7.77734375 154.22265625 C9.52408779 156.76185286 8.83743319 158.73453738 8.34790039 161.65209961 C5.62034349 180.05975906 8.64323303 197.46484954 19 213 C8.15579689 209.28861498 1.85706511 199.82042729 -2.9921875 189.98828125 C-7.2345857 180.67520712 -7.14465294 170.89907677 -3.65625 161.38671875 C-2.80221515 158.28067534 -2.49326966 156.21201654 -3 153 C-5.04631594 150.80878596 -6.94092178 149.04875512 -9.25 147.1875 C-14.51944894 142.66749949 -18.08099396 138.84736247 -20 132 C-20.33 131.01 -20.66 130.02 -21 129 C-22.00497046 117.95968161 -20.04546544 111.06819817 -14 102 C-13.45092805 97.15096703 -14.39954225 94.74179653 -17.1875 90.8125 C-20.80576557 85.41799497 -23.58496951 80.02430683 -26 74 C-26.32097656 73.23558594 -26.64195313 72.47117187 -26.97265625 71.68359375 C-32.10500878 57.57559213 -29.51720794 39.33495989 -23.5390625 25.9453125 C-18.17794401 15.68571012 -10.19157393 5.71156508 0 0 Z " fill="#ACAFFC" transform="translate(57,209)"/>
<path d="M0 0 C10.79267636 0.35975588 20.10669176 5.1332241 27.90234375 12.546875 C33.62685931 19.24146675 37.56464783 27.03996634 40.125 35.4375 C42.23161796 42.19660614 44.68463761 46.11878636 50.92578125 49.66015625 C53.1760612 50.82099397 55.4273955 51.97978972 57.6796875 53.13671875 C68.21913291 59.05120753 74.51279371 67.76599452 79.16796875 78.7578125 C80.28427811 83.10775037 80.33934097 87.21344569 80.3125 91.6875 C80.31121094 92.57147461 80.30992187 93.45544922 80.30859375 94.36621094 C80.21105552 101.01100303 79.2227095 106.7023231 77 113 C72.38 111.35 67.76 109.7 63 108 C63.04640625 106.33453125 63.0928125 104.6690625 63.140625 102.953125 C63.81397818 86.47485694 63.81397818 86.47485694 59 71 C58.55269531 70.12730469 58.10539062 69.25460938 57.64453125 68.35546875 C51.12960916 56.70546061 42.46955443 47.95926334 29.5625 43.9375 C26.4921875 42.74609375 26.4921875 42.74609375 24 41 C22.63983624 37.58157519 22.17603726 34.41522907 21.68359375 30.7734375 C19.68805974 19.75808975 12.10601683 9.48576246 3.0625 3.0625 C2.051875 2.381875 1.04125 1.70125 0 1 C0 0.67 0 0.34 0 0 Z " fill="#E079FA" transform="translate(384,80)"/>
<path d="M0 0 C1.671875 1.16796875 1.671875 1.16796875 3.671875 4.16796875 C4.01337448 7.37806388 3.95767609 9.50705374 2.671875 12.48046875 C-0.3071628 14.9940319 -3.4951133 15.20660798 -7.328125 15.16796875 C-8.318125 14.83796875 -9.308125 14.50796875 -10.328125 14.16796875 C-15.5956178 13.66354636 -19.95991668 13.49630285 -24.765625 15.85546875 C-28.97794626 19.65683184 -32.70598376 23.70431701 -33.734375 29.4296875 C-34.01096067 36.58634164 -31.82780405 40.69605988 -27.328125 46.16796875 C-26.833125 46.66296875 -26.833125 46.66296875 -26.328125 47.16796875 C-25.62692978 54.29678681 -25.62692978 54.29678681 -28.390625 57.73046875 C-32.36294111 59.67436812 -34.13328042 59.56625028 -38.328125 58.16796875 C-44.26231334 53.37823102 -47.92175092 45.57133418 -49.328125 38.16796875 C-49.949788 29.41373072 -50.06289411 21.81524386 -45.328125 14.16796875 C-44.9775 13.54535156 -44.626875 12.92273438 -44.265625 12.28125 C-35.3622956 -1.97025991 -14.80099946 -7.26139259 0 0 Z " fill="#051B61" transform="translate(451.328125,328.83203125)"/>
<path d="M0 0 C6.84525895 5.50959867 12.22767006 11.49107987 14.5625 20.0625 C15.70103969 31.85830076 14.15117695 42.63414379 6.5625 52.0625 C4.25 54.5 4.25 54.5 1.5625 56.0625 C-1.90508942 56.00271398 -4.32576749 55.67215977 -7.375 54 C-9.17471799 50.71816131 -9.24675224 47.62194542 -8.4375 44.0625 C-6.71465989 41.13469731 -4.62782805 38.64720844 -2.4375 36.0625 C-0.56280257 32.31310513 -0.90629616 28.14501038 -1.4375 24.0625 C-3.82149755 18.24594166 -7.78647089 13.88801455 -13.4375 11.0625 C-15.4356051 10.96600061 -17.4370718 10.93269128 -19.4375 10.9375 C-20.51 10.93492187 -21.5825 10.93234375 -22.6875 10.9296875 C-25.39932052 10.8752659 -25.39932052 10.8752659 -27.4375 12.0625 C-31.49013598 12.60285146 -32.97480231 12.40449395 -36.3125 9.9375 C-38.4375 7.0625 -38.4375 7.0625 -39.0625 4.0625 C-38.21607538 -0.00033817 -36.67986301 -1.39999851 -33.4375 -3.9375 C-22.8802657 -9.34486391 -9.69842003 -5.4663822 0 0 Z " fill="#011E65" transform="translate(99.4375,331.9375)"/>
<path d="M0 0 C3.3125 2.0625 3.3125 2.0625 5 5 C5.14677214 9.18300603 4.70384759 11.16418098 2 14.375 C-0.95168558 15.97382969 -2.37750118 16.25670204 -5.625 16.5 C-9.15521798 16.74521037 -9.15521798 16.74521037 -12.125 18.625 C-13.38530062 22.04581597 -12.8421237 24.50194771 -12 28 C-9.60669546 30.39330454 -8.94874331 30.23249189 -5.6875 30.375 C-1.34508012 30.79455748 1.08771531 31.54166193 4 35 C5.125 38.4375 5.125 38.4375 5 42 C3.25 44.9375 3.25 44.9375 0 47 C-8.06724303 48.32146727 -15.01494923 46.62651073 -21.75 42.1875 C-27.62136687 36.47922665 -29.1380832 31.62426631 -29.25 23.6875 C-29.18861706 16.83562978 -27.91471606 13.21672298 -24.4375 7.375 C-17.63732073 0.7491843 -9.35607879 -1.69234955 0 0 Z " fill="#021F66" transform="translate(201,407)"/>
<path d="M0 0 C12.30239112 6.53405006 19.84591152 20.72697987 24.171875 33.4453125 C25.06563802 37.28174812 25.33519386 40.75067289 25.375 44.6875 C25.40335937 45.97011719 25.43171875 47.25273437 25.4609375 48.57421875 C25 52 25 52 23.2265625 54.421875 C20.89465509 56.07466551 19.81896731 56.5680058 17 56.5625 C16.01 56.59537109 16.01 56.59537109 15 56.62890625 C11.81444041 55.62719708 10.73628875 53.778062 9 51 C8.56640625 48.08984375 8.56640625 48.08984375 8.5625 44.9375 C7.85138036 31.53213835 1.47947769 22.76404939 -8.24609375 13.96875 C-10.70675464 11.20667186 -10.58188313 9.46297852 -10.3828125 5.90625 C-10 4 -10 4 -8.375 1.5 C-5.1472815 -0.53855905 -3.77423561 -0.72581454 0 0 Z " fill="#051B61" transform="translate(447,220)"/>
<path d="M0 0 C2.875 1.5 2.875 1.5 5 4 C6.01585635 7.61898823 6.28625949 8.61360887 5 12 C2.90204776 14.36291853 0.69185431 16.50531387 -1.64208984 18.63305664 C-7.67210479 24.26346886 -12.74114389 32.54964077 -13.140625 40.9609375 C-13.17671875 42.08757812 -13.2128125 43.21421875 -13.25 44.375 C-13.56629891 48.67378977 -13.76375077 50.63172915 -16.125 54.3125 C-19.77927517 56.45740064 -21.82840621 56.68262444 -26 56 C-29.02496856 53.77193176 -29.90126121 52.55429913 -30.56640625 48.8203125 C-30.54901707 32.37015202 -24.37212958 18.29255949 -13.40625 6.12109375 C-6.31551014 -0.70267548 -6.31551014 -0.70267548 0 0 Z " fill="#011E66" transform="translate(74,220)"/>
<path d="M0 0 C7.26960368 3.06303526 12.11508083 8.60714549 15.875 15.375 C17.89951592 21.89844019 17.82180515 26.8426703 15 33.125 C11.61534693 39.31573296 6.55480654 44.24749335 0 47 C-4.95919427 47.55102159 -6.8963886 47.7432485 -11.0625 44.9375 C-13 42 -13 42 -13.125 38.4375 C-11.7849882 34.34301949 -10.66093553 33.19656132 -7 31 C-5.00779443 30.31039038 -3.00894394 29.63920943 -1 29 C0.52491998 25.95016004 0.23562548 23.3576631 0 20 C-1.68267196 17.22854029 -3.4511917 16.81468912 -6.5 15.5625 C-11.52475248 13.31930693 -11.52475248 13.31930693 -13 10 C-12.93541482 6.31864501 -12.78095253 3.96838114 -10.4375 1.0625 C-6.88025471 -0.4880941 -3.75986144 -0.71779173 0 0 Z " fill="#051C63" transform="translate(323,407)"/>
<path d="M0 0 C2.98955057 2.14962922 4.01511873 3.86561243 5.140625 7.3671875 C5.015625 10.8671875 5.015625 10.8671875 3.515625 13.7421875 C0.13202152 16.61825046 -1.52867142 17.08632046 -5.984375 16.8671875 C-8.37397217 15.47149357 -10.55326841 13.8799958 -12.796875 12.26171875 C-16.15312404 10.12210999 -18.11116683 10.03721432 -21.984375 10.8671875 C-24.31587936 12.35352153 -26.53186989 13.96397135 -28.7734375 15.58203125 C-30.984375 16.8671875 -30.984375 16.8671875 -34.859375 16.9921875 C-37.984375 15.8671875 -37.984375 15.8671875 -39.921875 14.2421875 C-41.5132445 10.68500863 -41.70555705 8.73534576 -40.984375 4.8671875 C-30.60952557 -8.18850158 -13.56968778 -7.74647531 0 0 Z " fill="#061B61" transform="translate(396.984375,396.1328125)"/>
<path d="M0 0 C3.4252804 2.57068327 4.6023605 3.92468894 5.50390625 8.20703125 C4.55986412 12.533891 3.33850802 14.07296911 -0.24609375 16.64453125 C-3.18359375 17.26953125 -3.18359375 17.26953125 -6.24609375 16.64453125 C-7.69252219 15.39095994 -9.13730635 14.13472308 -10.546875 12.83984375 C-13.78650094 10.56093447 -17.37297179 10.269713 -21.24609375 10.64453125 C-24.63232151 12.31772875 -24.63232151 12.31772875 -27.24609375 14.64453125 C-30.77182182 16.99501663 -32.0962302 17.30850942 -36.24609375 16.64453125 C-39.94810856 13.41511407 -41.12123599 12.04293812 -41.55859375 7.14453125 C-39.45919921 1.54614581 -35.43119556 -0.63344216 -30.32421875 -3.39453125 C-20.18193259 -7.8789305 -9.21607164 -5.56169889 0 0 Z " fill="#011E66" transform="translate(155.24609375,396.35546875)"/>
<path d="M0 0 C2.69732014 1.97258564 4.44980145 3.37582113 5.93359375 6.4140625 C6.21996906 10.35365795 5.82278715 13.36020365 3.24609375 16.4140625 C0.10865735 17.77079175 -1.66358919 17.94783772 -5.06640625 17.4140625 C-6.65625 16.2890625 -6.65625 16.2890625 -8.31640625 14.9140625 C-12.01698823 12.04856761 -15.02657754 11.69634301 -19.64453125 11.90625 C-22.95790201 12.60098903 -24.90289982 14.16567343 -27.48046875 16.27734375 C-29.06640625 17.4140625 -29.06640625 17.4140625 -32.19140625 18.1015625 C-36.41941935 17.09051589 -37.76409151 15.0029649 -40.06640625 11.4140625 C-40.41796875 8.93359375 -40.41796875 8.93359375 -40.06640625 6.4140625 C-30.96553343 -5.4461175 -12.45109957 -7.51685269 0 0 Z " fill="#011E66" transform="translate(146.06640625,134.5859375)"/>
<path d="M0 0 C2.0078125 1.39453125 2.0078125 1.39453125 3.75 2.8125 C4.78125 3.59625 5.8125 4.38 6.875 5.1875 C8.75 7.8125 8.75 7.8125 8.875 11.375 C7.53240253 15.47738116 6.57125828 16.81880003 2.75 18.8125 C-1.36467496 18.8125 -3.48633958 18.43909316 -6.6875 15.8125 C-9.40789946 13.6892614 -11.55816943 12.81762553 -15.0078125 12.4921875 C-18.84971405 13.04103058 -21.66749789 15.3858063 -24.8515625 17.4921875 C-27.25 18.8125 -27.25 18.8125 -31.1875 18.9375 C-34.25 17.8125 -34.25 17.8125 -36.1875 16.1875 C-37.75152277 12.6914491 -37.90412951 10.60645117 -37.25 6.8125 C-29.34795338 -3.4841062 -11.2447841 -5.99091859 0 0 Z " fill="#041B61" transform="translate(401.25,133.1875)"/>
<path d="M0 0 C12.54 0 25.08 0 38 0 C38.16043524 18.02668153 38.16043524 18.02668153 38.1953125 25.76757812 C38.21913538 31.02986987 38.24718141 36.29188069 38.30175781 41.55395508 C38.34552581 45.80096178 38.36920174 50.04766682 38.37950897 54.29488182 C38.38684525 55.90745981 38.40116992 57.52002309 38.42292023 59.13247108 C38.53967726 68.15489544 38.62121685 76.91579948 34 85 C32.68 86.32 31.36 87.64 30 89 C30 59.96 30 30.92 30 1 C20.1 1 10.2 1 0 1 C0 0.67 0 0.34 0 0 Z " fill="#166AB6" transform="translate(194,367)"/>
<path d="M0 0 C13.86 0 27.72 0 42 0 C42 0.33 42 0.66 42 1 C30.78 1 19.56 1 8 1 C8 29.38 8 57.76 8 87 C0.27205233 79.27205233 -0.30725313 71.71629533 -0.34891224 61.11162853 C-0.33965709 58.87242967 -0.31661526 56.63362046 -0.29296875 54.39453125 C-0.28736077 52.81841947 -0.28309637 51.24230239 -0.28010559 49.66618347 C-0.26875125 45.55456639 -0.23936743 41.44327653 -0.20599365 37.33178711 C-0.16963627 32.37902333 -0.15608669 27.42614903 -0.13863373 22.47328949 C-0.10972253 14.9819667 -0.05217093 7.49135926 0 0 Z " fill="#B10D10" transform="translate(280,367)"/>
<path d="M0 0 C-0.47308594 0.34289062 -0.94617188 0.68578125 -1.43359375 1.0390625 C-11.49685539 9.00335924 -18.1489704 20.55839303 -21 33 C-21.42802858 37.76931848 -21.38502779 42.46690016 -21.25 47.25 C-21.22292969 49.10044922 -21.22292969 49.10044922 -21.1953125 50.98828125 C-21.14872713 53.99303791 -21.08333547 56.99607674 -21 60 C-27.625 63 -27.625 63 -31 63 C-33.488032 56.6657901 -34.55294363 51.04730012 -34.5 44.25 C-34.49033203 42.94011108 -34.49033203 42.94011108 -34.48046875 41.60375977 C-34.13544136 29.29967458 -29.31626929 19.04798841 -21 10 C-6.84464856 -2.28154952 -6.84464856 -2.28154952 0 0 Z " fill="#ABAFFC" transform="translate(86,129)"/>
<path d="M0 0 C14.89775751 -0.81755986 14.89775751 -0.81755986 21 4 C25.45306243 8.31169537 29.65288756 12.59198691 30.30078125 18.953125 C30.33242652 27.85599549 29.92476352 34.17505807 23.6875 40.8125 C19.77181307 44.65516713 15.87296368 46.84960142 10.3515625 47.29296875 C9.12179687 47.25816406 7.89203125 47.22335937 6.625 47.1875 C5.37976563 47.16042969 4.13453125 47.13335937 2.8515625 47.10546875 C1.91054688 47.07066406 0.96953125 47.03585937 0 47 C2.62534914 44.88020796 5.24535368 42.82620781 8 40.875 C12.5872692 37.00077782 15.25618254 31.52713439 16.484375 25.703125 C16.88783463 19.38225743 14.50820292 14.1570583 11 9 C8.84315668 6.70835397 6.55140815 4.83221928 4 3 C2.66638447 2.00037637 1.33298323 1.00046663 0 0 Z " fill="#E179FB" transform="translate(323,407)"/>
<path d="M0 0 C17.49 0 34.98 0 53 0 C48.5 7.5 48.5 7.5 44 9 C42.54218278 9.08630926 41.08072526 9.11770981 39.62036133 9.11352539 C38.73967484 9.11344986 37.85898834 9.11337433 36.95161438 9.11329651 C36.00465195 9.10813522 35.05768951 9.10297394 34.08203125 9.09765625 C33.10965012 9.0962413 32.13726898 9.09482635 31.13542175 9.09336853 C28.02774996 9.08776817 24.92015004 9.07521562 21.8125 9.0625 C19.70638125 9.05748505 17.60026137 9.05292213 15.49414062 9.04882812 C10.32939936 9.03779862 5.16471187 9.02053375 0 9 C0 6.03 0 3.06 0 0 Z " fill="#B30E0E" transform="translate(280,176)"/>
<path d="M0 0 C-0.56847656 0.38929687 -1.13695312 0.77859375 -1.72265625 1.1796875 C-12.69327355 9.12834845 -19.7149838 20.52462163 -22.0625 33.875 C-22.96179839 37.66180467 -23.5038957 38.68670673 -26.8515625 40.80078125 C-29.87399933 42.05718063 -32.85008592 43.11607062 -36 44 C-36.78081162 32.02755522 -31.15878815 20.78825703 -23.6875 11.6875 C-18.40914901 6.013854 -8.14991721 -2.71663907 0 0 Z " fill="#AAAEFB" transform="translate(127,81)"/>
<path d="M0 0 C0.79921875 0.01804687 1.5984375 0.03609375 2.421875 0.0546875 C3.02515625 0.07789063 3.6284375 0.10109375 4.25 0.125 C2.37244475 1.55194199 0.49873487 2.9604958 -1.46875 4.26171875 C-6.56761619 7.68616914 -9.52395927 10.95177737 -10.75 17.125 C-11.35787467 26.06777162 -11.41230933 32.75057496 -5.5 39.8125 C-2.38970352 42.42797658 0.66366437 44.22635172 4.25 46.125 C4.25 46.455 4.25 46.785 4.25 47.125 C-1.79650436 47.7548442 -5.87278394 47.2157536 -10.89453125 43.6875 C-16.0496624 39.34633693 -20.37038213 34.5935085 -21.12109375 27.734375 C-21.25335951 20.04740026 -21.30979815 13.97668755 -15.75 8.125 C-11.0417474 3.44827588 -6.90032607 -0.20295077 0 0 Z " fill="#A9ADFB" transform="translate(183.75,406.875)"/>
<path d="M0 0 C16.17 0 32.34 0 49 0 C49 2.97 49 5.94 49 9 C43.28925873 9.14886633 37.57965854 9.2574597 31.86743164 9.32958984 C29.92647618 9.35967215 27.98565564 9.40054963 26.04516602 9.45263672 C23.24721935 9.52583255 20.45107664 9.55954101 17.65234375 9.5859375 C16.36129982 9.63238907 16.36129982 9.63238907 15.04417419 9.67977905 C9.37347924 9.68291182 6.43413497 8.47214271 2.28956604 4.58486938 C1 3 1 3 0 0 Z " fill="#156AB6" transform="translate(183,176)"/>
<path d="M0 0 C2.64 0 5.28 0 8 0 C8 10.56 8 21.12 8 32 C-4.87 32 -17.74 32 -31 32 C-31 31.67 -31 31.34 -31 31 C-20.77 31 -10.54 31 0 31 C0 20.77 0 10.54 0 0 Z " fill="#1565B2" transform="translate(224,320)"/>
<path d="M0 0 C2.64 0 5.28 0 8 0 C8 10.23 8 20.46 8 31 C5.36 31 2.72 31 0 31 C0 20.77 0 10.54 0 0 Z " fill="#B40E0E" transform="translate(280,320)"/>
<path d="M0 0 C12.17113243 1.74392345 21.87289169 6.99017564 31 15 C31.33 15.66 31.66 16.32 32 17 C30.75579353 17.5345256 29.50429064 18.05208611 28.25 18.5625 C27.55390625 18.85253906 26.8578125 19.14257812 26.140625 19.44140625 C23.55225955 20.11683738 22.45018822 20.07827537 20 19 C18.02734375 16.99609375 18.02734375 16.99609375 15.9375 14.4375 C11.78396312 9.61939721 7.33181079 6.06983534 2.08984375 2.49609375 C1.40019531 2.00238281 0.71054687 1.50867187 0 1 C0 0.67 0 0.34 0 0 Z " fill="#DB75F4" transform="translate(330,49)"/>
<path d="M0 0 C0.66 0.33 1.32 0.66 2 1 C1.26394531 1.58007812 0.52789062 2.16015625 -0.23046875 2.7578125 C-6.53655859 7.62897352 -6.53655859 7.62897352 -11.6875 13.625 C-14 16 -14 16 -16.0703125 16.140625 C-18.3125 15.875 -18.3125 15.875 -22 15 C-16.67931844 7.7479235 -8.47735675 2.88590868 0 0 Z " fill="#A6AAF7" transform="translate(176,51)"/>
</svg>
